<svg width="24" height="25" viewBox="0 0 24 25" fill="none" xmlns="http://www.w3.org/2000/svg">
<path d="M11.9926 14.7079C12.3023 14.7079 12.6205 14.698 12.9466 14.6793C13.1587 15.0713 13.319 15.4762 13.4102 15.888L13.4112 15.8911C13.4146 15.9067 13.4196 15.9218 13.4251 15.9364C13.4261 15.939 13.4276 15.9421 13.4286 15.9447C13.4346 15.9588 13.441 15.9723 13.449 15.9848C13.4505 15.9869 13.452 15.989 13.453 15.9911C13.4604 16.003 13.4689 16.014 13.4779 16.0249L13.4814 16.0291C13.4913 16.0405 13.5023 16.0504 13.5137 16.0603C13.5157 16.0618 13.5172 16.0634 13.5192 16.065C13.5307 16.0743 13.5431 16.0827 13.556 16.0905C13.558 16.0915 13.5595 16.0926 13.5615 16.0936C13.574 16.1004 13.5869 16.1066 13.6004 16.1118L13.6039 16.1134C13.6138 16.117 13.6238 16.1201 13.6342 16.1227C13.6377 16.1238 13.6412 16.1238 13.6447 16.1248C13.6492 16.1259 13.6536 16.1264 13.6581 16.1274C13.6726 16.1295 13.6865 16.1311 13.7009 16.1311H13.7029C13.7169 16.1311 13.7313 16.1295 13.7458 16.1274C13.7502 16.1269 13.7547 16.1259 13.7592 16.1248C13.7627 16.1243 13.7662 16.1238 13.7697 16.1227C13.7801 16.1201 13.7901 16.117 13.8 16.1134L13.8035 16.1118C13.817 16.1066 13.8299 16.1004 13.8424 16.0936C13.8443 16.0926 13.8458 16.0915 13.8478 16.0905C13.8608 16.0832 13.8727 16.0743 13.8847 16.065C13.8867 16.0634 13.8882 16.0618 13.8902 16.0603C13.9016 16.0504 13.9126 16.0405 13.9225 16.0291L13.926 16.0249C13.935 16.0145 13.9434 16.003 13.9509 15.9911C13.9524 15.989 13.9539 15.9869 13.9549 15.9848C13.9629 15.9718 13.9693 15.9588 13.9753 15.9447C13.9763 15.9421 13.9778 15.939 13.9788 15.9364C13.9848 15.9218 13.9892 15.9067 13.9927 15.8911L13.9937 15.888C14.0465 15.6491 14.1361 15.4138 14.2541 15.1847C14.4468 15.1946 14.6355 15.1998 14.8198 15.1998C16.683 15.1998 18.1081 14.6902 19.0636 13.6804C20.1127 12.5711 20.5633 10.8846 20.4035 8.66761C20.3935 8.52966 20.2979 8.41514 20.169 8.38599C20.0395 8.35632 19.9076 8.41983 19.8438 8.54111C19.5834 9.03719 19.0387 9.39324 18.3804 9.70868V5.08422H20.1366C20.2681 5.08422 20.3841 4.99417 20.4224 4.86247C20.4608 4.73078 20.412 4.58867 20.3024 4.51215L13.9245 0.0527045C13.8239 -0.0175681 13.693 -0.0175681 13.5924 0.0527045L7.21498 4.51215C7.10544 4.58867 7.05714 4.73078 7.09498 4.86247C7.13283 4.99417 7.24934 5.08422 7.38079 5.08422H9.13697V7.76395C8.80386 7.61976 8.46776 7.48078 8.13365 7.34336C6.4203 6.63699 4.80204 5.97018 4.17316 4.77242C4.10943 4.65114 3.97698 4.58815 3.84802 4.6173C3.71856 4.64645 3.62346 4.76097 3.6135 4.89891C3.3725 8.23868 4.04669 10.7742 5.61714 12.4347C7.04669 13.9453 9.18776 14.7079 11.9926 14.7079ZM19.8364 9.51244C19.8364 11.1464 19.4345 12.3988 18.6374 13.241C17.77 14.1577 16.4286 14.6049 14.645 14.5731C15.3745 13.6205 16.5182 12.8694 17.3353 12.6404C17.4946 12.5956 17.5892 12.4243 17.5464 12.2578C17.5036 12.0912 17.3393 11.9923 17.1804 12.037C16.3245 12.2775 15.1155 13.036 14.284 14.0536C14.2133 12.1193 15.8266 11.4546 17.524 10.7544C18.4053 10.3916 19.2508 10.0434 19.8364 9.51244ZM9.43622 4.45906H8.36519L13.7582 0.687761L19.1512 4.45906H18.0802C17.9154 4.45906 17.7814 4.59908 17.7814 4.77138V9.97572C17.6251 10.0418 17.4658 10.1079 17.3049 10.174C16.329 10.5764 15.3202 10.9923 14.6092 11.6872C13.7941 12.4842 13.5202 13.5055 13.7731 14.8058C13.7557 14.8375 13.7383 14.8698 13.7219 14.9021C13.6357 14.6954 13.5361 14.4929 13.4251 14.2941C13.819 12.3395 13.4196 10.8101 12.2052 9.62331C11.526 8.95911 10.6576 8.46251 9.73448 8.03203V4.77242C9.73498 4.59908 9.60104 4.45906 9.43622 4.45906ZM4.16819 5.7984C5.03856 6.73797 6.4437 7.31733 7.91457 7.92376C9.34062 8.51144 10.8155 9.11943 11.7969 10.0793C12.7295 10.9913 13.1 12.1047 12.9391 13.543C11.6968 11.8575 9.71556 10.5837 8.34129 10.1975C8.18245 10.1532 8.01814 10.2516 7.97531 10.4182C7.93249 10.5847 8.0271 10.756 8.18643 10.8008C9.53183 11.1782 11.4448 12.4644 12.5697 14.0723C9.64436 14.1801 7.44951 13.4821 6.04187 11.9944C4.73233 10.6097 4.10296 8.52758 4.16819 5.7984ZM23.8536 18.4308C23.5215 17.8296 23.0042 17.4054 22.3962 17.2357C21.9167 17.1019 21.4138 17.143 20.9532 17.3471C20.9348 17.307 20.9149 17.2679 20.8935 17.2289C20.6639 16.8135 20.292 16.5158 19.8458 16.3908C19.4002 16.2659 18.9351 16.3294 18.5378 16.5694L14.9577 18.7306C14.8138 18.6328 14.6545 18.5537 14.4812 18.499L7.72934 16.3762C6.4427 15.9718 5.20138 16.1238 4.03922 16.8281L0.148941 19.1856C0.00653459 19.272 -0.042262 19.4625 0.0398955 19.6119L2.66445 24.3649C2.74711 24.5143 2.92935 24.5653 3.07275 24.4795L4.50677 23.6138C4.693 23.5014 4.87823 23.4649 5.09034 23.4993L14.2009 24.9693C14.3273 24.9896 14.4513 25 14.5728 25C14.9657 25 15.3351 24.8933 15.6931 24.6767L23.4523 19.9935C23.9756 19.678 24.1554 18.9769 23.8536 18.4308ZM18.837 17.1107C19.0965 16.954 19.3997 16.9129 19.6915 16.9946C19.9833 17.0764 20.2262 17.2705 20.3761 17.5417C20.3945 17.575 20.411 17.6094 20.4259 17.6443L15.7325 20.4921C15.8062 20.0205 15.6812 19.5505 15.4133 19.1762L18.837 17.1107ZM23.1545 19.4526L15.3954 24.1359C15.0438 24.3478 14.6938 24.4165 14.2925 24.3519L5.18196 22.8819C5.0993 22.8684 5.01864 22.8622 4.93897 22.8622C4.68254 22.8622 4.44155 22.9319 4.20802 23.073L3.03242 23.7825L0.706118 19.5703L4.33848 17.3694C5.35225 16.7552 6.43474 16.6225 7.55706 16.9754L14.3089 19.0981C14.9109 19.2876 15.2634 19.8758 15.129 20.4672C15.0707 20.7222 14.9338 20.9372 14.7516 21.0892L14.4742 21.2579C14.2746 21.3411 14.049 21.363 13.8249 21.3068L8.82776 20.0632C8.66693 20.0231 8.5061 20.1267 8.46776 20.2949C8.42942 20.4625 8.52851 20.6311 8.68934 20.6712L13.6865 21.9148C14.1914 22.0402 14.6978 21.9127 15.0837 21.6103L20.9896 18.0264C21.3849 17.7864 21.8181 17.7224 22.2428 17.8405C22.6959 17.967 23.0848 18.2877 23.3368 18.7442C23.4732 18.9909 23.3915 19.3095 23.1545 19.4526Z" fill="#1A3A1A"/>
</svg>
