<svg width="38.00" height="40.00" viewBox="0 0 38.00 40.00" fill="none" xmlns="http://www.w3.org/2000/svg">
<path transform="translate(0.000,18.629)" d="M1.61582 21.3435C0.881955 21.4903 0.169784 20.9978 0.0251807 20.2434C-0.117615 19.4889 0.361383 18.7549 1.09524 18.6081C1.09524 18.6081 14.3048 15.8969 23.7094 0.646303C24.1089 -0.00222473 24.9476 -0.195482 25.5802 0.217048C26.211 0.627721 26.399 1.48995 25.9995 2.14033C15.89 18.5319 1.61582 21.3435 1.61582 21.3435Z" fill="#1a3a28" fill-rule="evenodd"/>
<path transform="translate(9.929,8.980)" d="M4.67301 5.76483C5.01102 6.45052 4.74531 7.29045 4.07833 7.6398C3.41135 7.98729 2.59434 7.71413 2.25452 7.02844C1.45016 5.39875 0.712686 3.6743 0.080047 1.86437C-0.173009 1.13965 0.193922 0.342465 0.898863 0.0823109C1.602 -0.177844 2.37924 0.199381 2.63229 0.922239C3.22517 2.62068 3.91746 4.23735 4.67301 5.76483Z" fill="#1a3a28" fill-rule="evenodd"/>
<path transform="translate(5.396,3.766)" d="M31.6123 1.03956C31.6123 1.03956 33.2843 7.5267 32.2847 14.7683C31.6033 19.7075 29.6819 24.9756 25.2606 28.8594C20.6207 32.9364 13.1592 35.5361 1.25289 34.3728C0.594949 34.3078 0.0761845 33.7633 0.0291884 33.085C0.0291884 33.085 -1.02099 17.879 9.4772 8.05072C13.9527 3.85852 20.5285 0.61402 30.2187 0.00265656C30.864 -0.0382249 31.4479 0.396605 31.6123 1.03956ZM29.2318 2.87365C20.9551 3.60394 15.236 6.42847 11.3028 10.1115C3.4364 17.4758 2.71519 28.1681 2.70616 31.7025C12.9025 32.4978 19.4151 30.3292 23.5001 26.741C27.3701 23.3404 29.0023 18.7022 29.6006 14.3762C30.2802 9.4537 29.6222 4.90843 29.2318 2.87365Z" fill="#1a3a28" fill-rule="evenodd"/>
<path transform="translate(2.498,0.000)" d="M18.2891 8.94361C18.7501 9.5494 18.647 10.4246 18.0596 10.9003C17.4703 11.3761 16.6172 11.2701 16.1562 10.6644C13.8263 7.61311 10.2347 4.89449 4.8085 3.0827C4.25178 4.42622 3.34801 6.93485 2.93047 9.89875C2.32675 14.1913 2.73525 19.4892 6.99563 23.4342C7.55235 23.949 7.59573 24.8298 7.09504 25.4021C6.59435 25.9744 5.73758 26.019 5.18086 25.5043C0.132397 20.829 -0.467707 14.589 0.248079 9.49923C0.942175 4.55815 2.86901 0.752463 2.86901 0.752463C3.16545 0.16154 3.82701 -0.130205 4.4488 0.0556199C11.1891 2.06067 15.5218 5.31818 18.2891 8.94361Z" fill="#1a3a28" fill-rule="evenodd"/>
</svg>