<svg width="28.00" height="28.00" viewBox="0 0 28.00 28.00" fill="none" xmlns="http://www.w3.org/2000/svg"><path transform="translate(7.897,21.906)" d="M10.5438 0L1.75726 0C0.788269 0 0 0.788269 0 1.75726L0 6.0921L12.3011 6.0921L12.3011 1.75726C12.3011 0.788269 11.5128 0 10.5438 0Z" fill="#005131" fill-rule="evenodd"/>
<path transform="translate(10.592,16.695)" d="M0.521667 0.237976C0.381531 0.098053 0.19632 0.0143127 0 0L0 3.57071L6.91241 3.57071L6.91241 0C6.71609 0.0143127 6.53067 0.0980529 6.39011 0.238617C5.60654 1.02219 4.5647 1.4537 3.45621 1.4537C2.34772 1.4537 1.30588 1.02219 0.521667 0.237976Z" fill="#005131" fill-rule="evenodd"/>
<path transform="translate(19.145,16.855)" d="M0 0L0 3.48633C1.53702 3.81125 2.69421 5.17801 2.69421 6.81052L2.69421 11.1454L5.44696 11.1454C5.89963 11.1454 6.26727 10.7779 6.26727 10.325L6.26727 7.68915C6.26727 3.90311 3.5722 0.734009 0 0Z" fill="#005131" fill-rule="evenodd"/>
<path transform="translate(2.684,16.855)" d="M6.26727 0C2.69507 0.734009 0 3.90311 0 7.68915L0 10.325C0 10.7779 0.367432 11.1454 0.820312 11.1454L3.57285 11.1454L3.57285 6.81052C3.57285 5.17801 4.73004 3.81125 6.26727 3.48633L6.26727 0Z" fill="#005131" fill-rule="evenodd"/>
<path transform="translate(1.805,0.000)" d="M23.6667 4.21841L19.2107 4.21841C19.1487 1.88181 17.23 0 14.8788 0L9.60706 0C7.25571 0 5.33716 1.88181 5.27499 4.21841L0.820312 4.21841C0.367432 4.21841 0 4.58649 0 5.03937C0 6.52682 1.2059 7.73273 2.69336 7.73273L21.7936 7.73273C23.2811 7.73273 24.487 6.52682 24.487 5.03937C24.487 4.58649 24.1193 4.21841 23.6667 4.21841Z" fill="#005131" fill-rule="evenodd"/>
<path transform="translate(7.955,9.375)" d="M12.1844 0.23349L12.1844 0L0 0L0 0.23349C0 3.60339 2.72775 6.32559 6.09232 6.32559C9.46222 6.32559 12.1844 3.59805 12.1844 0.23349Z" fill="#005131" fill-rule="evenodd"/>
</svg>